<mxfile host="app.diagrams.net" agent="Mozilla/5.0 (Macintosh; Intel Mac OS X 10_15_7) AppleWebKit/605.1.15 (KHTML, like Gecko) Version/17.6 Safari/605.1.15" version="24.7.7" pages="2">
  <diagram name="Page-1" id="58cdce13-f638-feb5-8d6f-7d28b1aa9fa0">
    <mxGraphModel dx="2044" dy="716" grid="1" gridSize="10" guides="1" tooltips="1" connect="1" arrows="1" fold="1" page="1" pageScale="1" pageWidth="1100" pageHeight="850" background="none" math="0" shadow="0">
      <root>
        <mxCell id="0" />
        <mxCell id="1" parent="0" />
        <mxCell id="2a3bc250acf0617d-7" value="AWS EC2 (Docker Network)" style="swimlane;whiteSpace=wrap;html=1;rounded=1;shadow=0;comic=0;labelBackgroundColor=none;strokeWidth=1;fontFamily=Verdana;fontSize=12;align=center;" parent="1" vertex="1">
          <mxGeometry x="-840" y="240" width="800" height="370" as="geometry">
            <mxRectangle x="95" y="210" width="100" height="30" as="alternateBounds" />
          </mxGeometry>
        </mxCell>
        <mxCell id="nauncTJ5Cq9mWn6NizwN-39" value="FastAPI Server" style="swimlane;" parent="2a3bc250acf0617d-7" vertex="1">
          <mxGeometry x="40" y="40" width="720" height="180" as="geometry" />
        </mxCell>
        <mxCell id="382b91b5511bd0f7-8" value="Langauge&lt;div&gt;Detection&lt;/div&gt;" style="rounded=1;whiteSpace=wrap;html=1;arcSize=24;fillColor=#ffffc0;strokeColor=#ff0000;shadow=0;comic=0;labelBackgroundColor=none;fontFamily=Verdana;fontSize=12;fontColor=#000000;align=center;" parent="nauncTJ5Cq9mWn6NizwN-39" vertex="1">
          <mxGeometry x="20" y="55" width="120" height="60" as="geometry" />
        </mxCell>
        <mxCell id="nauncTJ5Cq9mWn6NizwN-42" value="Context&lt;div&gt;Detection&lt;/div&gt;&lt;div&gt;(Function Call API)&lt;/div&gt;" style="rounded=1;whiteSpace=wrap;html=1;arcSize=24;fillColor=#ffffc0;strokeColor=#ff0000;shadow=0;comic=0;labelBackgroundColor=none;fontFamily=Verdana;fontSize=12;fontColor=#000000;align=center;" parent="nauncTJ5Cq9mWn6NizwN-39" vertex="1">
          <mxGeometry x="200" y="55" width="120" height="60" as="geometry" />
        </mxCell>
        <mxCell id="nauncTJ5Cq9mWn6NizwN-100" value="LLM&lt;div&gt;Generation&lt;/div&gt;&lt;div&gt;(Chat API)&lt;/div&gt;" style="rounded=1;whiteSpace=wrap;html=1;arcSize=24;fillColor=#ffffc0;strokeColor=#ff0000;shadow=0;comic=0;labelBackgroundColor=none;fontFamily=Verdana;fontSize=12;fontColor=#000000;align=center;" parent="nauncTJ5Cq9mWn6NizwN-39" vertex="1">
          <mxGeometry x="400" y="55" width="120" height="60" as="geometry" />
        </mxCell>
        <mxCell id="nauncTJ5Cq9mWn6NizwN-101" value="Translation to&amp;nbsp;&lt;div&gt;User Language&lt;div&gt;(Translation API)&lt;/div&gt;&lt;/div&gt;" style="rounded=1;whiteSpace=wrap;html=1;arcSize=24;fillColor=#ffffc0;strokeColor=#ff0000;shadow=0;comic=0;labelBackgroundColor=none;fontFamily=Verdana;fontSize=12;fontColor=#000000;align=center;" parent="nauncTJ5Cq9mWn6NizwN-39" vertex="1">
          <mxGeometry x="580" y="55" width="120" height="60" as="geometry" />
        </mxCell>
        <mxCell id="nauncTJ5Cq9mWn6NizwN-113" style="edgeStyle=orthogonalEdgeStyle;html=1;labelBackgroundColor=none;endArrow=open;endSize=8;strokeColor=#FF0000;fontFamily=Verdana;fontSize=12;align=left;rounded=0;curved=0;entryX=0;entryY=0.5;entryDx=0;entryDy=0;exitX=1;exitY=0.5;exitDx=0;exitDy=0;" parent="nauncTJ5Cq9mWn6NizwN-39" source="382b91b5511bd0f7-8" target="nauncTJ5Cq9mWn6NizwN-42" edge="1">
          <mxGeometry relative="1" as="geometry">
            <mxPoint x="430" y="-135" as="sourcePoint" />
            <mxPoint x="430" y="-85" as="targetPoint" />
          </mxGeometry>
        </mxCell>
        <mxCell id="nauncTJ5Cq9mWn6NizwN-115" style="edgeStyle=orthogonalEdgeStyle;html=1;labelBackgroundColor=none;endArrow=open;endSize=8;strokeColor=#FF0000;fontFamily=Verdana;fontSize=12;align=left;rounded=0;curved=0;entryX=0;entryY=0.5;entryDx=0;entryDy=0;exitX=1;exitY=0.5;exitDx=0;exitDy=0;" parent="nauncTJ5Cq9mWn6NizwN-39" source="nauncTJ5Cq9mWn6NizwN-42" target="nauncTJ5Cq9mWn6NizwN-100" edge="1">
          <mxGeometry relative="1" as="geometry">
            <mxPoint x="170" y="105" as="sourcePoint" />
            <mxPoint x="250" y="105" as="targetPoint" />
          </mxGeometry>
        </mxCell>
        <mxCell id="nauncTJ5Cq9mWn6NizwN-116" style="edgeStyle=orthogonalEdgeStyle;html=1;labelBackgroundColor=none;endArrow=open;endSize=8;strokeColor=#FF0000;fontFamily=Verdana;fontSize=12;align=left;rounded=0;curved=0;exitX=1;exitY=0.5;exitDx=0;exitDy=0;fontStyle=1" parent="nauncTJ5Cq9mWn6NizwN-39" source="nauncTJ5Cq9mWn6NizwN-100" edge="1">
          <mxGeometry relative="1" as="geometry">
            <mxPoint x="560" y="94.5" as="sourcePoint" />
            <mxPoint x="580" y="85" as="targetPoint" />
          </mxGeometry>
        </mxCell>
        <mxCell id="nauncTJ5Cq9mWn6NizwN-134" style="edgeStyle=orthogonalEdgeStyle;html=1;labelBackgroundColor=none;endArrow=open;endSize=8;strokeColor=#FF0000;fontFamily=Verdana;fontSize=12;align=left;rounded=1;curved=0;exitX=0.5;exitY=1;exitDx=0;exitDy=0;entryX=0.5;entryY=1;entryDx=0;entryDy=0;dashed=1;dashPattern=8 8;" parent="nauncTJ5Cq9mWn6NizwN-39" source="382b91b5511bd0f7-8" target="nauncTJ5Cq9mWn6NizwN-101" edge="1">
          <mxGeometry relative="1" as="geometry">
            <mxPoint x="140" y="160" as="sourcePoint" />
            <mxPoint x="720" y="180" as="targetPoint" />
            <Array as="points">
              <mxPoint x="80" y="150" />
              <mxPoint x="640" y="150" />
            </Array>
          </mxGeometry>
        </mxCell>
        <mxCell id="dJNh_H8suoZZvjH9-cfM-22" style="edgeStyle=orthogonalEdgeStyle;html=1;labelBackgroundColor=none;endArrow=open;endSize=8;strokeColor=#FF0000;fontFamily=Verdana;fontSize=12;align=left;rounded=1;curved=0;entryX=0.5;entryY=1;entryDx=0;entryDy=0;dashed=1;" parent="2a3bc250acf0617d-7" target="nauncTJ5Cq9mWn6NizwN-100" edge="1">
          <mxGeometry relative="1" as="geometry">
            <mxPoint x="480" y="420" as="sourcePoint" />
            <mxPoint x="450" y="474" as="targetPoint" />
            <Array as="points">
              <mxPoint x="480" y="420" />
              <mxPoint x="500" y="420" />
            </Array>
          </mxGeometry>
        </mxCell>
        <mxCell id="dJNh_H8suoZZvjH9-cfM-74" value="ChromaDB" style="swimlane;" parent="2a3bc250acf0617d-7" vertex="1">
          <mxGeometry x="320" y="250" width="160" height="95" as="geometry" />
        </mxCell>
        <mxCell id="KTUIBHoVF7iItc9apY48-12" value="Recommendations&lt;div&gt;&lt;br&gt;&lt;/div&gt;&lt;div&gt;Relevant Data&lt;/div&gt;&lt;div&gt;To Eat/Go/Visit&lt;/div&gt;" style="text;html=1;align=center;verticalAlign=middle;resizable=0;points=[];autosize=1;strokeColor=none;fillColor=none;" parent="dJNh_H8suoZZvjH9-cfM-74" vertex="1">
          <mxGeometry x="20" y="25" width="120" height="70" as="geometry" />
        </mxCell>
        <mxCell id="dJNh_H8suoZZvjH9-cfM-34" value="&lt;div&gt;Use RAG for User Inquiry&lt;br&gt;&lt;/div&gt;&lt;div style=&quot;&quot;&gt;(Embedding Query API)&lt;br&gt;&lt;/div&gt;" style="text;strokeColor=none;fillColor=none;spacingLeft=4;spacingRight=4;overflow=hidden;rotatable=0;points=[[0,0.5],[1,0.5]];portConstraint=eastwest;fontSize=12;whiteSpace=wrap;html=1;align=right;" parent="2a3bc250acf0617d-7" vertex="1">
          <mxGeometry x="90" y="230" width="200" height="60" as="geometry" />
        </mxCell>
        <mxCell id="dJNh_H8suoZZvjH9-cfM-45" value="&lt;div&gt;Return&lt;/div&gt;&lt;div&gt;Related Documents&lt;/div&gt;&lt;div&gt;as Context&lt;/div&gt;" style="text;strokeColor=none;fillColor=none;spacingLeft=4;spacingRight=4;overflow=hidden;rotatable=0;points=[[0,0.5],[1,0.5]];portConstraint=eastwest;fontSize=12;whiteSpace=wrap;html=1;" parent="2a3bc250acf0617d-7" vertex="1">
          <mxGeometry x="520" y="230" width="201.25" height="60" as="geometry" />
        </mxCell>
        <mxCell id="KTUIBHoVF7iItc9apY48-14" value="" style="endArrow=open;html=1;rounded=1;strokeColor=#FF0000;endFill=0;dashed=1;curved=0;" parent="2a3bc250acf0617d-7" edge="1">
          <mxGeometry width="50" height="50" relative="1" as="geometry">
            <mxPoint x="300" y="270" as="sourcePoint" />
            <mxPoint x="320" y="290" as="targetPoint" />
            <Array as="points">
              <mxPoint x="300" y="290" />
            </Array>
          </mxGeometry>
        </mxCell>
        <mxCell id="KTUIBHoVF7iItc9apY48-15" value="" style="endArrow=none;html=1;rounded=1;strokeColor=#FF0000;endFill=0;dashed=1;curved=0;" parent="2a3bc250acf0617d-7" edge="1">
          <mxGeometry width="50" height="50" relative="1" as="geometry">
            <mxPoint x="480" y="290" as="sourcePoint" />
            <mxPoint x="500" y="270" as="targetPoint" />
            <Array as="points">
              <mxPoint x="500" y="290" />
            </Array>
          </mxGeometry>
        </mxCell>
        <mxCell id="KTUIBHoVF7iItc9apY48-22" value="&lt;font style=&quot;text-align: left;&quot;&gt;Embed Data&lt;/font&gt;&lt;div&gt;(Embedding Passage API)&lt;br&gt;&lt;/div&gt;" style="text;strokeColor=none;fillColor=none;spacingLeft=4;spacingRight=4;overflow=hidden;rotatable=0;points=[[0,0.5],[1,0.5]];portConstraint=eastwest;fontSize=12;whiteSpace=wrap;html=1;align=right;" parent="2a3bc250acf0617d-7" vertex="1">
          <mxGeometry x="90" y="320" width="200" height="60" as="geometry" />
        </mxCell>
        <mxCell id="KTUIBHoVF7iItc9apY48-26" value="" style="endArrow=classic;html=1;rounded=0;strokeColor=#82b366;endFill=1;exitX=1;exitY=0.5;exitDx=0;exitDy=0;fillColor=#d5e8d4;" parent="2a3bc250acf0617d-7" edge="1">
          <mxGeometry width="50" height="50" relative="1" as="geometry">
            <mxPoint x="-40" y="320" as="sourcePoint" />
            <mxPoint x="320" y="320" as="targetPoint" />
          </mxGeometry>
        </mxCell>
        <mxCell id="nauncTJ5Cq9mWn6NizwN-137" value="&lt;div&gt;Accomodation&lt;/div&gt;Host" style="rounded=1;whiteSpace=wrap;html=1;arcSize=24;fillColor=#dae8fc;strokeColor=#6c8ebf;shadow=0;comic=0;labelBackgroundColor=none;fontFamily=Verdana;fontSize=12;align=center;" parent="1" vertex="1">
          <mxGeometry x="-1000" y="650" width="120" height="60" as="geometry" />
        </mxCell>
        <mxCell id="dJNh_H8suoZZvjH9-cfM-28" value="&lt;h1 style=&quot;margin-top: 0px;&quot;&gt;Flowchart&lt;/h1&gt;&lt;p&gt;Explicit visualization of sequential flow&lt;/p&gt;" style="text;html=1;whiteSpace=wrap;overflow=hidden;rounded=0;" parent="1" vertex="1">
          <mxGeometry x="-1050" y="70" width="180" height="120" as="geometry" />
        </mxCell>
        <mxCell id="igIMH52DrBDF1QGjZ3DF-1" value="" style="group;movable=1;resizable=1;rotatable=1;deletable=1;editable=1;locked=0;connectable=1;" parent="1" vertex="1" connectable="0">
          <mxGeometry x="-730" y="50" width="600" height="190" as="geometry" />
        </mxCell>
        <mxCell id="382b91b5511bd0f7-1" value="" style="ellipse;html=1;shape=startState;fillColor=#000000;strokeColor=#ff0000;rounded=1;shadow=0;comic=0;labelBackgroundColor=none;fontFamily=Verdana;fontSize=12;fontColor=#000000;align=center;direction=south;" parent="igIMH52DrBDF1QGjZ3DF-1" vertex="1">
          <mxGeometry x="276.25" y="30" width="30" height="30" as="geometry" />
        </mxCell>
        <mxCell id="382b91b5511bd0f7-6" value="KakaoTalk&lt;div&gt;ChatBot&lt;/div&gt;" style="rounded=1;whiteSpace=wrap;html=1;arcSize=24;fillColor=#ffffc0;strokeColor=#ff0000;shadow=0;comic=0;labelBackgroundColor=none;fontFamily=Verdana;fontSize=12;fontColor=#000000;align=center;" parent="igIMH52DrBDF1QGjZ3DF-1" vertex="1">
          <mxGeometry x="231.25" y="80" width="120" height="60" as="geometry" />
        </mxCell>
        <mxCell id="2a3bc250acf0617d-9" style="edgeStyle=orthogonalEdgeStyle;html=1;labelBackgroundColor=none;endArrow=open;endSize=8;strokeColor=#FF0000;fontFamily=Verdana;fontSize=12;align=left;" parent="igIMH52DrBDF1QGjZ3DF-1" source="382b91b5511bd0f7-1" edge="1">
          <mxGeometry relative="1" as="geometry">
            <mxPoint x="291" y="80" as="targetPoint" />
            <Array as="points">
              <mxPoint x="291" y="50" />
              <mxPoint x="291" y="50" />
            </Array>
          </mxGeometry>
        </mxCell>
        <mxCell id="nauncTJ5Cq9mWn6NizwN-110" value="&lt;div&gt;User Inquiry&lt;/div&gt;" style="text;strokeColor=none;fillColor=none;spacingLeft=4;spacingRight=4;overflow=hidden;rotatable=0;points=[[0,0.5],[1,0.5]];portConstraint=eastwest;fontSize=12;whiteSpace=wrap;html=1;" parent="igIMH52DrBDF1QGjZ3DF-1" vertex="1">
          <mxGeometry x="30" y="130" width="230" height="60" as="geometry" />
        </mxCell>
        <mxCell id="nauncTJ5Cq9mWn6NizwN-136" value="&lt;div&gt;LLM Response&lt;/div&gt;" style="text;strokeColor=none;fillColor=none;spacingLeft=4;spacingRight=4;overflow=hidden;rotatable=0;points=[[0,0.5],[1,0.5]];portConstraint=eastwest;fontSize=12;whiteSpace=wrap;html=1;align=right;" parent="igIMH52DrBDF1QGjZ3DF-1" vertex="1">
          <mxGeometry x="460" y="130" width="90" height="30" as="geometry" />
        </mxCell>
        <mxCell id="nauncTJ5Cq9mWn6NizwN-114" style="edgeStyle=orthogonalEdgeStyle;html=1;labelBackgroundColor=none;endArrow=open;endSize=8;strokeColor=#FF0000;fontFamily=Verdana;fontSize=12;align=left;exitX=0;exitY=0.5;exitDx=0;exitDy=0;entryX=0.5;entryY=0;entryDx=0;entryDy=0;" parent="1" source="382b91b5511bd0f7-6" target="382b91b5511bd0f7-8" edge="1">
          <mxGeometry relative="1" as="geometry">
            <mxPoint x="-410" y="65" as="sourcePoint" />
            <mxPoint x="-410" y="115" as="targetPoint" />
            <Array as="points">
              <mxPoint x="-720" y="160" />
            </Array>
          </mxGeometry>
        </mxCell>
        <mxCell id="nauncTJ5Cq9mWn6NizwN-135" style="edgeStyle=orthogonalEdgeStyle;html=1;labelBackgroundColor=none;endArrow=open;endSize=8;strokeColor=#FF0000;fontFamily=Verdana;fontSize=12;align=left;rounded=1;curved=0;entryX=1;entryY=0.5;entryDx=0;entryDy=0;fontStyle=1;exitX=0.5;exitY=0;exitDx=0;exitDy=0;" parent="1" source="nauncTJ5Cq9mWn6NizwN-101" target="382b91b5511bd0f7-6" edge="1">
          <mxGeometry relative="1" as="geometry">
            <mxPoint x="-140" y="385" as="sourcePoint" />
            <mxPoint x="-190" y="429.5" as="targetPoint" />
            <Array as="points">
              <mxPoint x="-160" y="160" />
            </Array>
          </mxGeometry>
        </mxCell>
        <mxCell id="KTUIBHoVF7iItc9apY48-2" value="Google Docs" style="swimlane;" parent="1" vertex="1">
          <mxGeometry x="-520" y="620" width="160" height="95" as="geometry" />
        </mxCell>
        <mxCell id="KTUIBHoVF7iItc9apY48-13" value="Host Information&lt;div&gt;&lt;br&gt;&lt;/div&gt;&lt;div&gt;Easy Modification&lt;/div&gt;" style="text;html=1;align=center;verticalAlign=middle;resizable=0;points=[];autosize=1;strokeColor=none;fillColor=none;" parent="KTUIBHoVF7iItc9apY48-2" vertex="1">
          <mxGeometry x="20" y="30" width="120" height="60" as="geometry" />
        </mxCell>
        <mxCell id="dJNh_H8suoZZvjH9-cfM-21" style="edgeStyle=orthogonalEdgeStyle;html=1;labelBackgroundColor=none;endArrow=open;endSize=8;strokeColor=#FF0000;fontFamily=Verdana;fontSize=12;align=left;rounded=1;curved=0;exitX=0.5;exitY=1;exitDx=0;exitDy=0;dashed=1;endFill=0;" parent="1" source="nauncTJ5Cq9mWn6NizwN-42" edge="1">
          <mxGeometry relative="1" as="geometry">
            <mxPoint x="-630" y="509" as="sourcePoint" />
            <mxPoint x="-520" y="660" as="targetPoint" />
            <Array as="points">
              <mxPoint x="-540" y="660" />
              <mxPoint x="-520" y="660" />
            </Array>
          </mxGeometry>
        </mxCell>
        <mxCell id="KTUIBHoVF7iItc9apY48-17" value="" style="endArrow=classic;html=1;rounded=0;strokeColor=#6c8ebf;endFill=1;exitX=1;exitY=0.5;exitDx=0;exitDy=0;fillColor=#dae8fc;" parent="1" source="nauncTJ5Cq9mWn6NizwN-137" edge="1">
          <mxGeometry width="50" height="50" relative="1" as="geometry">
            <mxPoint x="-840" y="679.71" as="sourcePoint" />
            <mxPoint x="-520" y="680" as="targetPoint" />
          </mxGeometry>
        </mxCell>
        <mxCell id="KTUIBHoVF7iItc9apY48-25" value="Gathered&lt;div&gt;Data&lt;/div&gt;" style="rounded=1;whiteSpace=wrap;html=1;arcSize=24;fillColor=#d5e8d4;strokeColor=#82b366;shadow=0;comic=0;labelBackgroundColor=none;fontFamily=Verdana;fontSize=12;align=center;" parent="1" vertex="1">
          <mxGeometry x="-1000" y="530" width="120" height="60" as="geometry" />
        </mxCell>
      </root>
    </mxGraphModel>
  </diagram>
  <diagram id="LV8Z_aSQyzPWDAmY1upK" name="Page-2">
    <mxGraphModel dx="3134" dy="827" grid="1" gridSize="10" guides="1" tooltips="1" connect="1" arrows="1" fold="1" page="1" pageScale="1" pageWidth="850" pageHeight="1100" math="0" shadow="0">
      <root>
        <mxCell id="0" />
        <mxCell id="1" parent="0" />
        <mxCell id="FeT1rc9QssqDF5PR-P-r-22" value="&lt;div&gt;User Inquiry&lt;/div&gt;&lt;div&gt;&lt;br&gt;&lt;/div&gt;HTTP POST chat-jeju.duckdns.org" style="text;strokeColor=none;fillColor=none;spacingLeft=4;spacingRight=4;overflow=hidden;rotatable=0;points=[[0,0.5],[1,0.5]];portConstraint=eastwest;fontSize=12;whiteSpace=wrap;html=1;" vertex="1" parent="1">
          <mxGeometry x="-860" y="95" width="230" height="60" as="geometry" />
        </mxCell>
        <mxCell id="FeT1rc9QssqDF5PR-P-r-23" value="&lt;div&gt;LLM Response&lt;/div&gt;&lt;div&gt;&lt;br&gt;&lt;/div&gt;HTTP POST KakaoTalk" style="text;strokeColor=none;fillColor=none;spacingLeft=4;spacingRight=4;overflow=hidden;rotatable=0;points=[[0,0.5],[1,0.5]];portConstraint=eastwest;fontSize=12;whiteSpace=wrap;html=1;align=right;" vertex="1" parent="1">
          <mxGeometry x="-220" y="90" width="230" height="60" as="geometry" />
        </mxCell>
        <mxCell id="FeT1rc9QssqDF5PR-P-r-19" value="" style="ellipse;html=1;shape=startState;fillColor=#000000;strokeColor=#ff0000;rounded=1;shadow=0;comic=0;labelBackgroundColor=none;fontFamily=Verdana;fontSize=12;fontColor=#000000;align=center;direction=south;" vertex="1" parent="1">
          <mxGeometry x="-450" y="25" width="30" height="30" as="geometry" />
        </mxCell>
        <mxCell id="FeT1rc9QssqDF5PR-P-r-20" value="KakaoTalk&lt;div&gt;ChatBot&lt;/div&gt;" style="rounded=1;whiteSpace=wrap;html=1;arcSize=24;fillColor=#ffffc0;strokeColor=#ff0000;shadow=0;comic=0;labelBackgroundColor=none;fontFamily=Verdana;fontSize=12;fontColor=#000000;align=center;" vertex="1" parent="1">
          <mxGeometry x="-494.75" y="105" width="120" height="60" as="geometry" />
        </mxCell>
        <mxCell id="FeT1rc9QssqDF5PR-P-r-1" value="AWS EC2 (Docker Network)" style="swimlane;whiteSpace=wrap;html=1;rounded=1;shadow=0;comic=0;labelBackgroundColor=none;strokeWidth=1;fontFamily=Verdana;fontSize=12;align=center;" vertex="1" parent="1">
          <mxGeometry x="-774.75" y="210" width="680" height="490" as="geometry">
            <mxRectangle x="95" y="210" width="100" height="30" as="alternateBounds" />
          </mxGeometry>
        </mxCell>
        <mxCell id="FeT1rc9QssqDF5PR-P-r-2" value="FastAPI Server" style="swimlane;" vertex="1" parent="FeT1rc9QssqDF5PR-P-r-1">
          <mxGeometry x="55" y="55" width="580" height="280" as="geometry" />
        </mxCell>
        <mxCell id="FeT1rc9QssqDF5PR-P-r-3" value="Langauge&lt;div&gt;Detection&lt;/div&gt;" style="rounded=1;whiteSpace=wrap;html=1;arcSize=24;fillColor=#ffffc0;strokeColor=#ff0000;shadow=0;comic=0;labelBackgroundColor=none;fontFamily=Verdana;fontSize=12;fontColor=#000000;align=center;" vertex="1" parent="FeT1rc9QssqDF5PR-P-r-2">
          <mxGeometry x="38" y="55" width="120" height="60" as="geometry" />
        </mxCell>
        <mxCell id="FeT1rc9QssqDF5PR-P-r-4" value="Context&lt;div&gt;Detection&lt;/div&gt;&lt;div&gt;(Function Call API)&lt;/div&gt;" style="rounded=1;whiteSpace=wrap;html=1;arcSize=24;fillColor=#ffffc0;strokeColor=#ff0000;shadow=0;comic=0;labelBackgroundColor=none;fontFamily=Verdana;fontSize=12;fontColor=#000000;align=center;" vertex="1" parent="FeT1rc9QssqDF5PR-P-r-2">
          <mxGeometry x="38" y="200" width="120" height="60" as="geometry" />
        </mxCell>
        <mxCell id="FeT1rc9QssqDF5PR-P-r-5" value="LLM&lt;div&gt;Generation&lt;/div&gt;&lt;div&gt;(Chat API)&lt;/div&gt;" style="rounded=1;whiteSpace=wrap;html=1;arcSize=24;fillColor=#ffffc0;strokeColor=#ff0000;shadow=0;comic=0;labelBackgroundColor=none;fontFamily=Verdana;fontSize=12;fontColor=#000000;align=center;" vertex="1" parent="FeT1rc9QssqDF5PR-P-r-2">
          <mxGeometry x="424" y="200" width="120" height="60" as="geometry" />
        </mxCell>
        <mxCell id="FeT1rc9QssqDF5PR-P-r-6" value="Translation to&amp;nbsp;&lt;div&gt;User Language&lt;div&gt;(Translation API)&lt;/div&gt;&lt;/div&gt;" style="rounded=1;whiteSpace=wrap;html=1;arcSize=24;fillColor=#ffffc0;strokeColor=#ff0000;shadow=0;comic=0;labelBackgroundColor=none;fontFamily=Verdana;fontSize=12;fontColor=#000000;align=center;" vertex="1" parent="FeT1rc9QssqDF5PR-P-r-2">
          <mxGeometry x="424" y="55" width="120" height="60" as="geometry" />
        </mxCell>
        <mxCell id="FeT1rc9QssqDF5PR-P-r-32" style="edgeStyle=orthogonalEdgeStyle;html=1;labelBackgroundColor=none;endArrow=open;endSize=8;strokeColor=#FF0000;fontFamily=Verdana;fontSize=12;align=left;exitX=1;exitY=0.5;exitDx=0;exitDy=0;entryX=0;entryY=0.5;entryDx=0;entryDy=0;dashed=1;" edge="1" parent="FeT1rc9QssqDF5PR-P-r-2" source="FeT1rc9QssqDF5PR-P-r-3" target="FeT1rc9QssqDF5PR-P-r-6">
          <mxGeometry relative="1" as="geometry">
            <mxPoint x="294.75" y="-150" as="targetPoint" />
            <Array as="points">
              <mxPoint x="220" y="85" />
              <mxPoint x="220" y="85" />
            </Array>
            <mxPoint x="294.75" y="-200" as="sourcePoint" />
          </mxGeometry>
        </mxCell>
        <mxCell id="FeT1rc9QssqDF5PR-P-r-37" style="edgeStyle=orthogonalEdgeStyle;html=1;labelBackgroundColor=none;endArrow=open;endSize=8;strokeColor=#FF0000;fontFamily=Verdana;fontSize=12;align=left;exitX=0.5;exitY=1;exitDx=0;exitDy=0;entryX=0.5;entryY=0;entryDx=0;entryDy=0;" edge="1" parent="FeT1rc9QssqDF5PR-P-r-2" source="FeT1rc9QssqDF5PR-P-r-3" target="FeT1rc9QssqDF5PR-P-r-4">
          <mxGeometry relative="1" as="geometry">
            <mxPoint x="97.5" y="185" as="targetPoint" />
            <Array as="points" />
            <mxPoint x="97.5" y="135" as="sourcePoint" />
          </mxGeometry>
        </mxCell>
        <mxCell id="FeT1rc9QssqDF5PR-P-r-51" style="edgeStyle=orthogonalEdgeStyle;html=1;labelBackgroundColor=none;endArrow=open;endSize=8;strokeColor=#FF0000;fontFamily=Verdana;fontSize=12;align=left;exitX=1;exitY=0.5;exitDx=0;exitDy=0;entryX=0;entryY=0.5;entryDx=0;entryDy=0;" edge="1" parent="FeT1rc9QssqDF5PR-P-r-2">
          <mxGeometry relative="1" as="geometry">
            <mxPoint x="423" y="229.5" as="targetPoint" />
            <Array as="points">
              <mxPoint x="219" y="229.5" />
              <mxPoint x="219" y="229.5" />
            </Array>
            <mxPoint x="157" y="229.5" as="sourcePoint" />
          </mxGeometry>
        </mxCell>
        <mxCell id="FeT1rc9QssqDF5PR-P-r-53" style="edgeStyle=orthogonalEdgeStyle;html=1;labelBackgroundColor=none;endArrow=open;endSize=8;strokeColor=#FF0000;fontFamily=Verdana;fontSize=12;align=left;exitX=0.5;exitY=0;exitDx=0;exitDy=0;entryX=0.5;entryY=1;entryDx=0;entryDy=0;" edge="1" parent="FeT1rc9QssqDF5PR-P-r-2" source="FeT1rc9QssqDF5PR-P-r-5" target="FeT1rc9QssqDF5PR-P-r-6">
          <mxGeometry relative="1" as="geometry">
            <mxPoint x="108" y="210" as="targetPoint" />
            <Array as="points" />
            <mxPoint x="108" y="125" as="sourcePoint" />
          </mxGeometry>
        </mxCell>
        <mxCell id="FeT1rc9QssqDF5PR-P-r-15" value="ChromaDB" style="swimlane;" vertex="1" parent="FeT1rc9QssqDF5PR-P-r-1">
          <mxGeometry x="214.75" y="370" width="221.25" height="120" as="geometry" />
        </mxCell>
        <mxCell id="FeT1rc9QssqDF5PR-P-r-16" value="&lt;ul&gt;&lt;li&gt;&lt;font size=&quot;3&quot;&gt;To-do&lt;/font&gt;&lt;/li&gt;&lt;li&gt;&lt;font size=&quot;3&quot;&gt;To-eat&lt;/font&gt;&lt;/li&gt;&lt;li&gt;&lt;font size=&quot;3&quot;&gt;To-visit&lt;/font&gt;&lt;/li&gt;&lt;/ul&gt;" style="text;strokeColor=none;fillColor=none;html=1;whiteSpace=wrap;verticalAlign=middle;overflow=hidden;" vertex="1" parent="FeT1rc9QssqDF5PR-P-r-15">
          <mxGeometry x="81.25" y="40" width="100" height="80" as="geometry" />
        </mxCell>
        <mxCell id="FeT1rc9QssqDF5PR-P-r-54" value="" style="strokeWidth=1;html=1;shape=mxgraph.flowchart.annotation_2;align=left;labelPosition=right;pointerEvents=1;dashed=1;strokeColor=#FF0000;" vertex="1" parent="FeT1rc9QssqDF5PR-P-r-1">
          <mxGeometry x="174.75" y="430" width="50" height="170" as="geometry" />
        </mxCell>
        <mxCell id="FeT1rc9QssqDF5PR-P-r-11" value="&lt;div&gt;Use RAG for User Inquiry&lt;br&gt;&lt;/div&gt;&lt;div style=&quot;&quot;&gt;To-do / To-eat / To-visit&lt;/div&gt;(Embedding Query API)" style="text;strokeColor=none;fillColor=none;spacingLeft=4;spacingRight=4;overflow=hidden;rotatable=0;points=[[0,0.5],[1,0.5]];portConstraint=eastwest;fontSize=12;whiteSpace=wrap;html=1;align=right;" vertex="1" parent="FeT1rc9QssqDF5PR-P-r-1">
          <mxGeometry x="-25.25" y="430" width="200" height="60" as="geometry" />
        </mxCell>
        <mxCell id="FeT1rc9QssqDF5PR-P-r-24" style="edgeStyle=orthogonalEdgeStyle;html=1;labelBackgroundColor=none;endArrow=open;endSize=8;strokeColor=#FF0000;fontFamily=Verdana;fontSize=12;align=left;exitX=0;exitY=0.5;exitDx=0;exitDy=0;entryX=0.5;entryY=0;entryDx=0;entryDy=0;" edge="1" parent="1" source="FeT1rc9QssqDF5PR-P-r-20" target="FeT1rc9QssqDF5PR-P-r-3">
          <mxGeometry relative="1" as="geometry">
            <mxPoint x="-406" y="65" as="sourcePoint" />
            <mxPoint x="-600" y="260" as="targetPoint" />
            <Array as="points">
              <mxPoint x="-630" y="135" />
              <mxPoint x="-630" y="320" />
            </Array>
          </mxGeometry>
        </mxCell>
        <mxCell id="FeT1rc9QssqDF5PR-P-r-25" style="edgeStyle=orthogonalEdgeStyle;html=1;labelBackgroundColor=none;endArrow=open;endSize=8;strokeColor=#FF0000;fontFamily=Verdana;fontSize=12;align=left;rounded=1;curved=0;entryX=1;entryY=0.5;entryDx=0;entryDy=0;fontStyle=1;exitX=0.5;exitY=0;exitDx=0;exitDy=0;" edge="1" parent="1" source="FeT1rc9QssqDF5PR-P-r-6" target="FeT1rc9QssqDF5PR-P-r-20">
          <mxGeometry relative="1" as="geometry">
            <mxPoint x="-136" y="385" as="sourcePoint" />
            <mxPoint x="-186" y="429.5" as="targetPoint" />
            <Array as="points">
              <mxPoint x="-231" y="135" />
            </Array>
          </mxGeometry>
        </mxCell>
        <mxCell id="FeT1rc9QssqDF5PR-P-r-12" value="&lt;div&gt;Return&lt;/div&gt;&lt;div&gt;Related Documents&lt;/div&gt;&lt;div&gt;as Context&lt;/div&gt;" style="text;strokeColor=none;fillColor=none;spacingLeft=4;spacingRight=4;overflow=hidden;rotatable=0;points=[[0,0.5],[1,0.5]];portConstraint=eastwest;fontSize=12;whiteSpace=wrap;html=1;" vertex="1" parent="1">
          <mxGeometry x="20" y="525" width="201.25" height="60" as="geometry" />
        </mxCell>
        <mxCell id="FeT1rc9QssqDF5PR-P-r-35" style="edgeStyle=orthogonalEdgeStyle;html=1;labelBackgroundColor=none;endArrow=open;endSize=8;strokeColor=#FF0000;fontFamily=Verdana;fontSize=12;align=left;" edge="1" parent="1">
          <mxGeometry relative="1" as="geometry">
            <mxPoint x="-435" y="105" as="targetPoint" />
            <Array as="points">
              <mxPoint x="-435" y="60" />
              <mxPoint x="-435" y="60" />
            </Array>
            <mxPoint x="-435" y="55" as="sourcePoint" />
          </mxGeometry>
        </mxCell>
        <mxCell id="FeT1rc9QssqDF5PR-P-r-17" value="&lt;font style=&quot;font-size: 12px;&quot;&gt;Embedding Data&lt;/font&gt;&lt;div&gt;&lt;font style=&quot;font-size: 12px;&quot;&gt;(Embedding Passage API)&lt;/font&gt;&lt;/div&gt;" style="text;strokeColor=none;fillColor=none;spacingLeft=4;spacingRight=4;overflow=hidden;rotatable=0;points=[[0,0.5],[1,0.5]];portConstraint=eastwest;fontSize=12;whiteSpace=wrap;html=1;" vertex="1" parent="1">
          <mxGeometry x="-1010" y="660" width="200" height="60" as="geometry" />
        </mxCell>
        <mxCell id="FeT1rc9QssqDF5PR-P-r-49" value="Google Docs" style="swimlane;" vertex="1" parent="1">
          <mxGeometry x="-560" y="740" width="221.25" height="120" as="geometry" />
        </mxCell>
        <mxCell id="FeT1rc9QssqDF5PR-P-r-50" value="&lt;ul&gt;&lt;li&gt;&lt;font size=&quot;3&quot;&gt;To-do&lt;/font&gt;&lt;/li&gt;&lt;li&gt;&lt;font size=&quot;3&quot;&gt;To-eat&lt;/font&gt;&lt;/li&gt;&lt;li&gt;&lt;font size=&quot;3&quot;&gt;To-visit&lt;/font&gt;&lt;/li&gt;&lt;/ul&gt;" style="text;strokeColor=none;fillColor=none;html=1;whiteSpace=wrap;verticalAlign=middle;overflow=hidden;" vertex="1" parent="FeT1rc9QssqDF5PR-P-r-49">
          <mxGeometry x="81.25" y="40" width="100" height="80" as="geometry" />
        </mxCell>
        <mxCell id="ZYvI1cYNKtyjdSEUuUB3-1" value="" style="strokeWidth=1;html=1;shape=mxgraph.flowchart.annotation_2;align=left;labelPosition=right;pointerEvents=1;dashed=1;strokeColor=#FF0000;rotation=-180;" vertex="1" parent="1">
          <mxGeometry x="-329.63" y="630" width="50" height="170" as="geometry" />
        </mxCell>
      </root>
    </mxGraphModel>
  </diagram>
</mxfile>
